<?xml version="1.0" encoding="UTF-8" standalone="no"?><!DOCTYPE svg PUBLIC "-//W3C//DTD SVG 1.1//EN" "http://www.w3.org/Graphics/SVG/1.1/DTD/svg11.dtd"><svg width="100%" height="100%" viewBox="0 0 600 600" version="1.1" xmlns="http://www.w3.org/2000/svg" xmlns:xlink="http://www.w3.org/1999/xlink" xml:space="preserve" xmlns:serif="http://www.serif.com/" style="fill-rule:evenodd;clip-rule:evenodd;stroke-linejoin:round;stroke-miterlimit:1.41421;"><path d="M233.93,267.213c2.953,-6.969 3.548,-11.708 -0.239,-12.306c-17.087,-12.756 -2.434,-40.524 18.234,-29.334c9.392,-9.558 24.223,-16.028 46.607,-16.242c22.542,-1.229 37.784,5.001 49.028,14.604c19.023,-13.607 35.839,15.846 14.451,29.624c1.497,4.143 1.82,8.254 1.885,12.359l0.022,0.409c19.148,-3.891 29.852,-21.292 34.61,-48.205l188.628,0c-69.169,33.474 -91.07,78.74 -82.376,131.637c-54.145,-5.267 -99.994,0.08 -136.08,17.913l-2.004,30.184c-2.435,15.29 -6.297,28.894 -14.963,36.825l9.87,12.264c-0.982,6.757 -4.254,9.42 -9.54,8.485l-11.028,-11.785c-26.655,14.237 -52.618,14.458 -77.975,2.361l-12.106,9.565c-7.394,3.285 -11.519,1.065 -11.555,-8.039l10.399,-10.952c-9.179,-8.499 -13.539,-23.308 -15.271,-41.56l-0.155,-23.544c-36.928,-20.253 -84.803,-26.502 -141.906,-20.948c8.695,-52.897 -13.206,-98.163 -82.375,-131.637l188.628,0c4.807,27.194 15.685,44.676 35.211,48.322Zm67.306,-38.384l-5.269,0.114l0.147,12.143l-17.207,18.992l17.794,-0.027l-0.104,12.882l11.034,0.14l-12.182,14.291l0.207,11.543l5.24,0.027l-0.123,-10.627l17.812,-19.747l-16.811,-0.165l0.072,-13.048l-12.331,0.173l11.744,-12.51l-0.023,-14.181Z" style="fill:#333;"/></svg>